
<?xml version="1.0" encoding="utf-8"?>
<!-- Generator: Adobe Illustrator 22.0.1, SVG Export Plug-In . SVG Version: 6.00 Build 0)  -->
<svg version="1.1" id="Vue" xmlns="http://www.w3.org/2000/svg" xmlns:xlink="http://www.w3.org/1999/xlink" x="0px" y="0px"
	 viewBox="0 0 283.5 283.5" style="enable-background:new 0 0 283.5 283.5;" xml:space="preserve">
<style type="text/css">
	.st0{fill:#A8DB88;}
	.st1{fill:#41B883;}
	.st2{fill:#35495E;}
	.st3{fill:none;stroke:#35495E;stroke-width:2;stroke-linecap:round;stroke-linejoin:round;stroke-miterlimit:10;}
</style>
<path class="st0" d="M141.6,51.1l-25.5,44.1l25.5,44.1l25.7-44.1L141.6,51.1z"/>
<circle class="st1" cx="208.7" cy="139.3" r="36.5"/>
<circle class="st1" cx="75.3" cy="139.3" r="36.5"/>
<path class="st0" d="M153.4,216.5c-11.6,0-11.6,0-22.8,0s-60-22-60-22l1.6-18.7c0,0,9.3-4.6,11.1-36.5c1.7-31.9-4.9-36.3-4.9-36.3
	l2.3-27.5h46.9l14-24.4l14.5,24.4h47.3l2.3,27.5c0,0-7.6,4.3-4.9,36.3s11.1,36.5,11.1,36.5l1.6,18.7
	C213.4,194.5,165,216.5,153.4,216.5z"/>
<path class="st2" d="M142,181.3L130.7,201l11.3,19.6l11.4-19.6L142,181.3z"/>
<path class="st2" d="M141.8,181.3"/>
<path class="st1" d="M178.8,75.5h24.5L142,181.3L80.6,75.5h24.2h22.7L142,100l14.1-24.5H178.8z"/>
<path class="st1" d="M80.6,75.5L142,181.3l61.4-105.9h-24.5L142,139l-37.1-63.5H80.6z"/>
<path class="st2" d="M104.9,75.5l37.1,63.8l36.8-63.8h-22.7L142,100l-14.4-24.5H104.9z"/>
<path class="st3" d="M213.4,194.5c0,0-14.4-5.5-34.5-9.4c-11-2.1-23.7-3.8-36.8-3.8c-13.2,0-26.1,1.7-37.1,3.8
	c-20,3.9-34.2,9.4-34.2,9.4"/>
<circle class="st2" cx="59.6" cy="158.1" r="7"/>
<circle class="st2" cx="224.4" cy="119.8" r="7"/>
</svg>
